# xmcd
# Track frame offsets:
# 150
# 14082
# 29178
# 40210
# 55715
# 71434
# 86694
# 100148
# 116731
# 130764
# 149322
# 163553
# 178620
#
# Disc length: 2528 seconds
# Revision: 0
# Processed by: cddbd v1.5.2PL0 Copyright (c) Steve Scherf et al.
# Submitted via: VisiTrax 2.10.3.257 - For more info visit www.synapsa.com
#
DISCID=b509de0d
DTITLE=Adams, Clelia - Bring it On
DYEAR=2008
DGENRE=
TTITLE0=Find my Love
TTITLE1=Cowgirls rides away
TTITLE2=Eat my Words
TTITLE3=Any Ole Time
TTITLE4=Curious Soul Astray
TTITLE5=Mind Your own Business
TTITLE6=Just Because
TTITLE7=Faded Love
TTITLE8=Your Gonna Love me one Day
TTITLE9=Downtown Train
TTITLE10=Bring it on
TTITLE11=Speed of the Sound of Loneliness
TTITLE12=Silver Threads and Golden Needles
EXTD=
EXTT0=
EXTT1=
EXTT2=
EXTT3=
EXTT4=
EXTT5=
EXTT6=
EXTT7=
EXTT8=
EXTT9=
EXTT10=
EXTT11=
EXTT12=
PLAYORDER=
